<svg xmlns="http://www.w3.org/2000/svg" viewBox="0 0 260 80" width="260" height="80" role="img" aria-label="Curling vine">
  <path d="M6 50 C 30 10 70 70 100 30 C 124 0 152 70 180 30 C 200 4 230 60 254 32" stroke="#5B8C3E" stroke-width="3" fill="none" stroke-linecap="round"></path>
  
  <path d="M52 30 C 60 22 76 22 78 32 C 70 38 56 36 52 30 Z" fill="#A8C49A" stroke="#3D1E6D" stroke-width="2" stroke-linejoin="round"></path>
  <path d="M132 18 C 140 10 154 12 154 22 C 146 28 134 26 132 18 Z" fill="#7BB155" stroke="#3D1E6D" stroke-width="2" stroke-linejoin="round"></path>
  <path d="M210 18 C 218 10 232 12 232 22 C 224 28 212 26 210 18 Z" fill="#A8C49A" stroke="#3D1E6D" stroke-width="2" stroke-linejoin="round"></path>
  
  <path d="M254 32 c 6 -2 8 4 3 6 c -4 1 -5 -3 -1 -5" stroke="#5B8C3E" stroke-width="2.4" fill="none" stroke-linecap="round"></path>
</svg>