<svg xmlns="http://www.w3.org/2000/svg" viewBox="0 0 120 140" width="120" height="140" role="img" aria-label="Friendly lemon character">
  
  <g transform="translate(60,18)">
    <path d="M0 0 C -8 -10 -22 -14 -28 -6 C -22 4 -10 4 -2 -2 Z" fill="#5B8C3E" stroke="#3D1E6D" stroke-width="2.5" stroke-linejoin="round"></path>
    <path d="M0 0 C 10 -14 26 -16 30 -4 C 22 6 8 4 2 -2 Z" fill="#7BB155" stroke="#3D1E6D" stroke-width="2.5" stroke-linejoin="round"></path>
    <path d="M0 -2 L 0 8" stroke="#3D1E6D" stroke-width="2.5" stroke-linecap="round"></path>
  </g>
  
  <ellipse cx="60" cy="78" rx="42" ry="48" fill="#F9D548" stroke="#3D1E6D" stroke-width="3.5"></ellipse>
  
  <path d="M60 124 q-3 6 0 10 q3 -4 0 -10" fill="#F9D548" stroke="#3D1E6D" stroke-width="3" stroke-linejoin="round"></path>
  
  <ellipse cx="38" cy="92" rx="7" ry="4.5" fill="#F08D3C" opacity="0.85"></ellipse>
  <ellipse cx="82" cy="92" rx="7" ry="4.5" fill="#F08D3C" opacity="0.85"></ellipse>
  
  <circle cx="48" cy="78" r="4.5" fill="#1A0F33"></circle>
  <circle cx="72" cy="78" r="4.5" fill="#1A0F33"></circle>
  <circle cx="49.4" cy="76.4" r="1.3" fill="#FFF8EC"></circle>
  <circle cx="73.4" cy="76.4" r="1.3" fill="#FFF8EC"></circle>
  
  <path d="M52 96 q8 7 16 0" stroke="#1A0F33" stroke-width="2.4" fill="none" stroke-linecap="round"></path>
</svg>